<mxfile host="65bd71144e">
    <diagram id="JusBjOUX209j8ZEuyBm4" name="Страница 1">
        <mxGraphModel dx="847" dy="392" grid="1" gridSize="10" guides="1" tooltips="1" connect="1" arrows="1" fold="1" page="1" pageScale="1" pageWidth="827" pageHeight="1169" math="0" shadow="0">
            <root>
                <mxCell id="0"/>
                <mxCell id="1" parent="0"/>
                <mxCell id="4" value="" style="edgeStyle=none;html=1;fontFamily=Verdana;fontSize=27;" edge="1" parent="1" source="2" target="3">
                    <mxGeometry relative="1" as="geometry"/>
                </mxCell>
                <mxCell id="2" value="Start" style="ellipse;whiteSpace=wrap;html=1;fontSize=27;fontFamily=Verdana;labelBackgroundColor=none;labelBorderColor=none;fillColor=#a20025;fontColor=#ffffff;strokeColor=#6F0000;" vertex="1" parent="1">
                    <mxGeometry x="260" y="10" width="120" height="70" as="geometry"/>
                </mxCell>
                <mxCell id="6" value="" style="edgeStyle=none;html=1;fontFamily=Verdana;fontSize=17;" edge="1" parent="1" source="3" target="5">
                    <mxGeometry relative="1" as="geometry"/>
                </mxCell>
                <mxCell id="3" value="&lt;font style=&quot;font-size: 17px&quot;&gt;string[] mainArrayString = {&quot;hello&quot;, ..., &quot;people&quot;};&lt;br&gt;count = 0;&lt;br&gt;&lt;/font&gt;" style="whiteSpace=wrap;html=1;fontSize=27;fontFamily=Verdana;labelBackgroundColor=none;labelBorderColor=none;" vertex="1" parent="1">
                    <mxGeometry x="86.88" y="100" width="466.25" height="130" as="geometry"/>
                </mxCell>
                <mxCell id="8" value="" style="edgeStyle=none;html=1;fontFamily=Verdana;fontSize=17;" edge="1" parent="1" source="5" target="7">
                    <mxGeometry relative="1" as="geometry"/>
                </mxCell>
                <mxCell id="18" value="" style="edgeStyle=none;html=1;fontFamily=Verdana;fontSize=17;endArrow=classic;endFill=1;exitX=1;exitY=0.5;exitDx=0;exitDy=0;" edge="1" parent="1" source="5" target="17">
                    <mxGeometry relative="1" as="geometry">
                        <Array as="points">
                            <mxPoint x="610" y="290"/>
                            <mxPoint x="610" y="720"/>
                            <mxPoint x="320" y="720"/>
                        </Array>
                    </mxGeometry>
                </mxCell>
                <mxCell id="5" value="&lt;font style=&quot;font-size: 17px&quot;&gt;&lt;font style=&quot;font-size: 17px&quot;&gt;i = 0; i &amp;lt;&amp;nbsp;&lt;/font&gt;mainArrayString.Length; i++&lt;br&gt;&lt;/font&gt;" style="shape=hexagon;perimeter=hexagonPerimeter2;whiteSpace=wrap;html=1;fixedSize=1;fontSize=27;fontFamily=Verdana;labelBackgroundColor=none;labelBorderColor=none;size=20;fillColor=#008a00;fontColor=#ffffff;strokeColor=#005700;" vertex="1" parent="1">
                    <mxGeometry x="112.5" y="250" width="415" height="80" as="geometry"/>
                </mxCell>
                <mxCell id="10" value="" style="edgeStyle=none;html=1;fontFamily=Verdana;fontSize=17;startArrow=none;" edge="1" parent="1" source="21" target="9">
                    <mxGeometry relative="1" as="geometry"/>
                </mxCell>
                <mxCell id="7" value="&lt;span style=&quot;font-size: 17px&quot;&gt;3 &amp;lt;=&amp;nbsp;&lt;/span&gt;&lt;span style=&quot;color: rgb(240 , 240 , 240) ; font-size: 17px&quot;&gt;mainArrayString[i].Length&lt;/span&gt;&lt;span style=&quot;font-size: 17px&quot;&gt;&lt;br&gt;&lt;/span&gt;" style="rhombus;whiteSpace=wrap;html=1;fontSize=27;fontFamily=Verdana;labelBackgroundColor=none;labelBorderColor=none;fillColor=#0050ef;fontColor=#ffffff;strokeColor=#001DBC;" vertex="1" parent="1">
                    <mxGeometry x="103.75" y="400" width="432.5" height="120" as="geometry"/>
                </mxCell>
                <mxCell id="14" style="edgeStyle=none;html=1;exitX=0.5;exitY=1;exitDx=0;exitDy=0;entryX=0;entryY=0.5;entryDx=0;entryDy=0;fontFamily=Verdana;fontSize=17;" edge="1" parent="1" source="9" target="5">
                    <mxGeometry relative="1" as="geometry">
                        <Array as="points">
                            <mxPoint x="320" y="680"/>
                            <mxPoint x="190" y="680"/>
                            <mxPoint x="50" y="680"/>
                            <mxPoint x="50" y="290"/>
                        </Array>
                    </mxGeometry>
                </mxCell>
                <mxCell id="9" value="&lt;font style=&quot;font-size: 17px&quot;&gt;count++;&lt;/font&gt;" style="whiteSpace=wrap;html=1;fontSize=27;fontFamily=Verdana;fillColor=#0050ef;strokeColor=#001DBC;fontColor=#ffffff;labelBackgroundColor=none;labelBorderColor=none;" vertex="1" parent="1">
                    <mxGeometry x="260" y="600" width="120" height="60" as="geometry"/>
                </mxCell>
                <mxCell id="30" value="" style="edgeStyle=none;html=1;fontFamily=Verdana;fontSize=17;endArrow=classic;endFill=1;" edge="1" parent="1" source="17" target="29">
                    <mxGeometry relative="1" as="geometry"/>
                </mxCell>
                <mxCell id="17" value="&lt;font style=&quot;font-size: 17px&quot;&gt;string[] arrayResult = new string [count];&lt;br&gt;count = 0;&lt;br&gt;&lt;/font&gt;" style="whiteSpace=wrap;html=1;fontSize=27;fontFamily=Verdana;labelBackgroundColor=none;labelBorderColor=none;strokeColor=none;" vertex="1" parent="1">
                    <mxGeometry x="132.5" y="740" width="375" height="100" as="geometry"/>
                </mxCell>
                <mxCell id="19" value="True" style="text;html=1;strokeColor=#6F0000;fillColor=#a20025;align=center;verticalAlign=middle;whiteSpace=wrap;rounded=0;labelBackgroundColor=none;labelBorderColor=none;fontFamily=Verdana;fontSize=17;fontColor=#ffffff;" vertex="1" parent="1">
                    <mxGeometry x="290.01" y="350" width="60" height="30" as="geometry"/>
                </mxCell>
                <mxCell id="20" value="False" style="text;html=1;strokeColor=#6F0000;fillColor=#a20025;align=center;verticalAlign=middle;whiteSpace=wrap;rounded=0;labelBackgroundColor=none;labelBorderColor=none;fontFamily=Verdana;fontSize=17;fontColor=#ffffff;" vertex="1" parent="1">
                    <mxGeometry x="536.25" y="275" width="60" height="30" as="geometry"/>
                </mxCell>
                <mxCell id="21" value="True" style="text;html=1;strokeColor=#6F0000;fillColor=#a20025;align=center;verticalAlign=middle;whiteSpace=wrap;rounded=0;labelBackgroundColor=none;labelBorderColor=none;fontFamily=Verdana;fontSize=17;fontColor=#ffffff;" vertex="1" parent="1">
                    <mxGeometry x="290" y="540" width="60" height="30" as="geometry"/>
                </mxCell>
                <mxCell id="22" value="" style="edgeStyle=none;html=1;fontFamily=Verdana;fontSize=17;endArrow=none;" edge="1" parent="1" source="7" target="21">
                    <mxGeometry relative="1" as="geometry">
                        <mxPoint x="320" y="520" as="sourcePoint"/>
                        <mxPoint x="320" y="600" as="targetPoint"/>
                    </mxGeometry>
                </mxCell>
                <mxCell id="26" value="" style="edgeStyle=none;html=1;exitX=0.5;exitY=1;exitDx=0;exitDy=0;fontFamily=Verdana;fontSize=17;endArrow=none;endFill=0;startArrow=none;" edge="1" parent="1" source="24">
                    <mxGeometry relative="1" as="geometry">
                        <mxPoint x="260" y="680" as="targetPoint"/>
                        <mxPoint x="536.2499999999998" y="459.9999999999999" as="sourcePoint"/>
                        <Array as="points">
                            <mxPoint x="560" y="680"/>
                        </Array>
                    </mxGeometry>
                </mxCell>
                <mxCell id="24" value="False" style="text;html=1;strokeColor=#6F0000;fillColor=#a20025;align=center;verticalAlign=middle;whiteSpace=wrap;rounded=0;labelBackgroundColor=none;labelBorderColor=none;fontFamily=Verdana;fontSize=17;fontColor=#ffffff;" vertex="1" parent="1">
                    <mxGeometry x="527.5" y="530" width="60" height="30" as="geometry"/>
                </mxCell>
                <mxCell id="27" value="" style="edgeStyle=none;html=1;exitX=1;exitY=0.5;exitDx=0;exitDy=0;fontFamily=Verdana;fontSize=17;endArrow=none;endFill=0;" edge="1" parent="1" source="7" target="24">
                    <mxGeometry relative="1" as="geometry">
                        <mxPoint x="260" y="680" as="targetPoint"/>
                        <mxPoint x="536.2499999999998" y="459.9999999999999" as="sourcePoint"/>
                        <Array as="points">
                            <mxPoint x="558" y="460"/>
                        </Array>
                    </mxGeometry>
                </mxCell>
                <mxCell id="32" value="" style="edgeStyle=none;html=1;fontFamily=Verdana;fontSize=17;endArrow=classic;endFill=1;" edge="1" parent="1" source="29" target="31">
                    <mxGeometry relative="1" as="geometry"/>
                </mxCell>
                <mxCell id="40" value="" style="edgeStyle=none;html=1;fontFamily=Verdana;fontSize=17;endArrow=classic;endFill=1;entryX=0.5;entryY=0;entryDx=0;entryDy=0;startArrow=none;" edge="1" parent="1" source="50" target="41">
                    <mxGeometry relative="1" as="geometry">
                        <mxPoint x="320.75149999999985" y="1480" as="targetPoint"/>
                        <Array as="points">
                            <mxPoint x="600" y="915"/>
                            <mxPoint x="600" y="1450"/>
                            <mxPoint x="320" y="1450"/>
                        </Array>
                    </mxGeometry>
                </mxCell>
                <mxCell id="29" value="&lt;font style=&quot;font-size: 17px&quot;&gt;i = 0; i &amp;lt; arrayResult.Length; i++&lt;/font&gt;" style="shape=hexagon;perimeter=hexagonPerimeter2;whiteSpace=wrap;html=1;fixedSize=1;fontSize=27;fontFamily=Verdana;strokeColor=#005700;labelBackgroundColor=none;labelBorderColor=none;fillColor=#008a00;fontColor=#ffffff;size=25;" vertex="1" parent="1">
                    <mxGeometry x="135" y="880" width="370" height="70" as="geometry"/>
                </mxCell>
                <mxCell id="35" value="" style="edgeStyle=none;html=1;fontFamily=Verdana;fontSize=17;endArrow=classic;endFill=1;" edge="1" parent="1" source="31" target="34">
                    <mxGeometry relative="1" as="geometry"/>
                </mxCell>
                <mxCell id="37" style="edgeStyle=none;html=1;exitX=1;exitY=0.5;exitDx=0;exitDy=0;fontFamily=Verdana;fontSize=17;endArrow=none;endFill=0;" edge="1" parent="1" source="31">
                    <mxGeometry relative="1" as="geometry">
                        <mxPoint x="270" y="1400" as="targetPoint"/>
                        <Array as="points">
                            <mxPoint x="560" y="1080"/>
                            <mxPoint x="560" y="1400"/>
                        </Array>
                    </mxGeometry>
                </mxCell>
                <mxCell id="31" value="&lt;span style=&quot;font-size: 17px&quot;&gt;3 &amp;lt;=&amp;nbsp;&lt;/span&gt;&lt;span style=&quot;color: rgb(240 , 240 , 240) ; font-size: 17px&quot;&gt;mainArrayString[i].Length&lt;/span&gt;" style="rhombus;whiteSpace=wrap;html=1;fontSize=27;fontFamily=Verdana;fillColor=#0050ef;strokeColor=#001DBC;fontColor=#ffffff;labelBackgroundColor=none;labelBorderColor=none;" vertex="1" parent="1">
                    <mxGeometry x="110.02" y="1010" width="419.99" height="140" as="geometry"/>
                </mxCell>
                <mxCell id="36" style="edgeStyle=none;html=1;exitX=0.5;exitY=1;exitDx=0;exitDy=0;entryX=0;entryY=0.5;entryDx=0;entryDy=0;fontFamily=Verdana;fontSize=17;endArrow=classic;endFill=1;" edge="1" parent="1" source="34" target="29">
                    <mxGeometry relative="1" as="geometry">
                        <Array as="points">
                            <mxPoint x="320" y="1400"/>
                            <mxPoint x="70" y="1400"/>
                            <mxPoint x="70" y="915"/>
                        </Array>
                    </mxGeometry>
                </mxCell>
                <mxCell id="34" value="&lt;font style=&quot;font-size: 17px&quot;&gt;arrayResult[count] = mainArrayString[i];&lt;br&gt;count++;&lt;br&gt;&lt;/font&gt;" style="whiteSpace=wrap;html=1;fontSize=27;fontFamily=Verdana;labelBackgroundColor=none;labelBorderColor=none;" vertex="1" parent="1">
                    <mxGeometry x="128.76000000000002" y="1240" width="382.5" height="110" as="geometry"/>
                </mxCell>
                <mxCell id="43" style="edgeStyle=none;html=1;exitX=0.5;exitY=1;exitDx=0;exitDy=0;entryX=0.5;entryY=0;entryDx=0;entryDy=0;fontFamily=Verdana;fontSize=17;endArrow=classic;endFill=1;startArrow=none;" edge="1" parent="1" source="52" target="42">
                    <mxGeometry relative="1" as="geometry"/>
                </mxCell>
                <mxCell id="46" value="" style="edgeStyle=none;html=1;fontFamily=Verdana;fontSize=17;endArrow=classic;endFill=1;startArrow=none;exitX=0.5;exitY=1;exitDx=0;exitDy=0;" edge="1" parent="1" source="54" target="45">
                    <mxGeometry relative="1" as="geometry">
                        <Array as="points">
                            <mxPoint x="570" y="1770"/>
                            <mxPoint x="320" y="1770"/>
                        </Array>
                    </mxGeometry>
                </mxCell>
                <mxCell id="56" style="edgeStyle=none;html=1;exitX=1;exitY=0.5;exitDx=0;exitDy=0;entryX=0.5;entryY=0;entryDx=0;entryDy=0;fontFamily=Verdana;fontSize=17;endArrow=none;endFill=0;" edge="1" parent="1" source="41" target="54">
                    <mxGeometry relative="1" as="geometry">
                        <Array as="points">
                            <mxPoint x="570" y="1515"/>
                        </Array>
                    </mxGeometry>
                </mxCell>
                <mxCell id="41" value="&lt;font style=&quot;font-size: 17px&quot;&gt;i = 0; i &amp;lt; arrayResult.Length; i++&lt;/font&gt;" style="shape=hexagon;perimeter=hexagonPerimeter2;whiteSpace=wrap;html=1;fixedSize=1;fontSize=27;fontFamily=Verdana;strokeColor=#005700;labelBackgroundColor=none;labelBorderColor=none;fillColor=#008a00;fontColor=#ffffff;size=25;" vertex="1" parent="1">
                    <mxGeometry x="135.01000000000002" y="1480" width="370" height="70" as="geometry"/>
                </mxCell>
                <mxCell id="44" style="edgeStyle=none;html=1;exitX=0.5;exitY=1;exitDx=0;exitDy=0;entryX=0;entryY=0.5;entryDx=0;entryDy=0;fontFamily=Verdana;fontSize=17;endArrow=classic;endFill=1;" edge="1" parent="1" source="42" target="41">
                    <mxGeometry relative="1" as="geometry">
                        <Array as="points">
                            <mxPoint x="320" y="1750"/>
                            <mxPoint x="110" y="1750"/>
                            <mxPoint x="110" y="1515"/>
                        </Array>
                    </mxGeometry>
                </mxCell>
                <mxCell id="42" value="Print(arrayResult[i]);" style="rounded=0;whiteSpace=wrap;html=1;labelBackgroundColor=none;labelBorderColor=none;fontFamily=Verdana;fontSize=17;" vertex="1" parent="1">
                    <mxGeometry x="165" y="1610" width="309.99" height="70" as="geometry"/>
                </mxCell>
                <mxCell id="45" value="STOP" style="ellipse;whiteSpace=wrap;html=1;fontSize=27;fontFamily=Verdana;fillColor=#a20025;strokeColor=#6F0000;fontColor=#ffffff;labelBackgroundColor=none;labelBorderColor=none;" vertex="1" parent="1">
                    <mxGeometry x="259.99" y="1810" width="120" height="60" as="geometry"/>
                </mxCell>
                <mxCell id="47" value="True" style="text;html=1;strokeColor=#6F0000;fillColor=#a20025;align=center;verticalAlign=middle;whiteSpace=wrap;rounded=0;labelBackgroundColor=none;labelBorderColor=none;fontFamily=Verdana;fontSize=17;fontColor=#ffffff;" vertex="1" parent="1">
                    <mxGeometry x="290.01" y="960" width="60" height="30" as="geometry"/>
                </mxCell>
                <mxCell id="48" value="False" style="text;html=1;strokeColor=#6F0000;fillColor=#a20025;align=center;verticalAlign=middle;whiteSpace=wrap;rounded=0;labelBackgroundColor=none;labelBorderColor=none;fontFamily=Verdana;fontSize=17;fontColor=#ffffff;" vertex="1" parent="1">
                    <mxGeometry x="530.01" y="1230" width="60" height="30" as="geometry"/>
                </mxCell>
                <mxCell id="49" value="True" style="text;html=1;strokeColor=#6F0000;fillColor=#a20025;align=center;verticalAlign=middle;whiteSpace=wrap;rounded=0;labelBackgroundColor=none;labelBorderColor=none;fontFamily=Verdana;fontSize=17;fontColor=#ffffff;" vertex="1" parent="1">
                    <mxGeometry x="290.01" y="1190" width="60" height="30" as="geometry"/>
                </mxCell>
                <mxCell id="50" value="False" style="text;html=1;strokeColor=#6F0000;fillColor=#a20025;align=center;verticalAlign=middle;whiteSpace=wrap;rounded=0;labelBackgroundColor=none;labelBorderColor=none;fontFamily=Verdana;fontSize=17;fontColor=#ffffff;" vertex="1" parent="1">
                    <mxGeometry x="520" y="900" width="60" height="30" as="geometry"/>
                </mxCell>
                <mxCell id="51" value="" style="edgeStyle=none;html=1;fontFamily=Verdana;fontSize=17;endArrow=none;endFill=1;entryX=0;entryY=0.5;entryDx=0;entryDy=0;" edge="1" parent="1" source="29" target="50">
                    <mxGeometry relative="1" as="geometry">
                        <mxPoint x="504.9999999999998" y="915" as="sourcePoint"/>
                        <mxPoint x="320.01" y="1480" as="targetPoint"/>
                        <Array as="points"/>
                    </mxGeometry>
                </mxCell>
                <mxCell id="52" value="True" style="text;html=1;strokeColor=#6F0000;fillColor=#a20025;align=center;verticalAlign=middle;whiteSpace=wrap;rounded=0;labelBackgroundColor=none;labelBorderColor=none;fontFamily=Verdana;fontSize=17;fontColor=#ffffff;" vertex="1" parent="1">
                    <mxGeometry x="290.01" y="1560" width="60" height="30" as="geometry"/>
                </mxCell>
                <mxCell id="53" value="" style="edgeStyle=none;html=1;exitX=0.5;exitY=1;exitDx=0;exitDy=0;entryX=0.5;entryY=0;entryDx=0;entryDy=0;fontFamily=Verdana;fontSize=17;endArrow=none;endFill=1;" edge="1" parent="1" source="41" target="52">
                    <mxGeometry relative="1" as="geometry">
                        <mxPoint x="320.01" y="1550" as="sourcePoint"/>
                        <mxPoint x="319.9949999999999" y="1610" as="targetPoint"/>
                    </mxGeometry>
                </mxCell>
                <mxCell id="54" value="False" style="text;html=1;strokeColor=#6F0000;fillColor=#a20025;align=center;verticalAlign=middle;whiteSpace=wrap;rounded=0;labelBackgroundColor=none;labelBorderColor=none;fontFamily=Verdana;fontSize=17;fontColor=#ffffff;" vertex="1" parent="1">
                    <mxGeometry x="540.01" y="1620" width="60" height="30" as="geometry"/>
                </mxCell>
            </root>
        </mxGraphModel>
    </diagram>
</mxfile>